<!-- Beautiful SVG hero background for real estate website -->
<svg width="1920" height="1080" xmlns="http://www.w3.org/2000/svg">
  <defs>
    <linearGradient id="skyGrad" x1="0%" y1="0%" x2="0%" y2="100%">
      <stop offset="0%" style="stop-color:#87CEEB;stop-opacity:1" />
      <stop offset="100%" style="stop-color:#98CDF0;stop-opacity:1" />
    </linearGradient>
    <linearGradient id="buildingGrad" x1="0%" y1="0%" x2="0%" y2="100%">
      <stop offset="0%" style="stop-color:#34495E;stop-opacity:1" />
      <stop offset="100%" style="stop-color:#2C3E50;stop-opacity:1" />
    </linearGradient>
  </defs>
  
  <!-- Sky background -->
  <rect width="1920" height="1080" fill="url(#skyGrad)"/>
  
  <!-- Mountains in background -->
  <polygon points="0,800 400,600 800,700 1200,500 1600,650 1920,550 1920,1080 0,1080" fill="#7F8C8D" opacity="0.6"/>
  
  <!-- Buildings skyline -->
  <rect x="0" y="600" width="200" height="480" fill="url(#buildingGrad)"/>
  <rect x="200" y="500" width="150" height="580" fill="#34495E"/>
  <rect x="350" y="650" width="180" height="430" fill="url(#buildingGrad)"/>
  <rect x="530" y="550" width="200" height="530" fill="#2C3E50"/>
  <rect x="730" y="700" width="160" height="380" fill="url(#buildingGrad)"/>
  <rect x="890" y="600" width="190" height="480" fill="#34495E"/>
  <rect x="1080" y="520" width="170" height="560" fill="url(#buildingGrad)"/>
  <rect x="1250" y="620" width="200" height="460" fill="#2C3E50"/>
  <rect x="1450" y="550" width="180" height="530" fill="url(#buildingGrad)"/>
  <rect x="1630" y="680" width="160" height="400" fill="#34495E"/>
  <rect x="1790" y="580" width="130" height="500" fill="url(#buildingGrad)"/>
  
  <!-- Building details and windows -->
  <!-- Building 1 -->
  <rect x="20" y="620" width="15" height="20" fill="#F39C12" opacity="0.8"/>
  <rect x="50" y="640" width="15" height="20" fill="#F1C40F" opacity="0.9"/>
  <rect x="80" y="680" width="15" height="20" fill="#F39C12" opacity="0.7"/>
  <rect x="110" y="700" width="15" height="20" fill="#F1C40F" opacity="0.8"/>
  <rect x="140" y="720" width="15" height="20" fill="#F39C12" opacity="0.9"/>
  <rect x="170" y="740" width="15" height="20" fill="#F1C40F" opacity="0.7"/>
  
  <!-- Building 2 -->
  <rect x="220" y="540" width="15" height="20" fill="#F1C40F" opacity="0.8"/>
  <rect x="250" y="560" width="15" height="20" fill="#F39C12" opacity="0.9"/>
  <rect x="280" y="580" width="15" height="20" fill="#F1C40F" opacity="0.7"/>
  <rect x="310" y="600" width="15" height="20" fill="#F39C12" opacity="0.8"/>
  
  <!-- More windows scattered across buildings -->
  <rect x="370" y="680" width="15" height="20" fill="#F1C40F" opacity="0.8"/>
  <rect x="400" y="700" width="15" height="20" fill="#F39C12" opacity="0.7"/>
  <rect x="550" y="580" width="15" height="20" fill="#F1C40F" opacity="0.9"/>
  <rect x="580" y="600" width="15" height="20" fill="#F39C12" opacity="0.8"/>
  <rect x="610" y="620" width="15" height="20" fill="#F1C40F" opacity="0.7"/>
  <rect x="750" y="720" width="15" height="20" fill="#F39C12" opacity="0.8"/>
  <rect x="780" y="740" width="15" height="20" fill="#F1C40F" opacity="0.9"/>
  <rect x="910" y="620" width="15" height="20" fill="#F1C40F" opacity="0.7"/>
  <rect x="940" y="640" width="15" height="20" fill="#F39C12" opacity="0.8"/>
  <rect x="970" y="660" width="15" height="20" fill="#F1C40F" opacity="0.9"/>
  <rect x="1100" y="540" width="15" height="20" fill="#F39C12" opacity="0.8"/>
  <rect x="1130" y="560" width="15" height="20" fill="#F1C40F" opacity="0.7"/>
  <rect x="1270" y="640" width="15" height="20" fill="#F1C40F" opacity="0.9"/>
  <rect x="1300" y="660" width="15" height="20" fill="#F39C12" opacity="0.8"/>
  <rect x="1470" y="570" width="15" height="20" fill="#F1C40F" opacity="0.7"/>
  <rect x="1500" y="590" width="15" height="20" fill="#F39C12" opacity="0.8"/>
  <rect x="1650" y="700" width="15" height="20" fill="#F1C40F" opacity="0.9"/>
  <rect x="1680" y="720" width="15" height="20" fill="#F39C12" opacity="0.7"/>
  <rect x="1810" y="600" width="15" height="20" fill="#F1C40F" opacity="0.8"/>
  <rect x="1840" y="620" width="15" height="20" fill="#F39C12" opacity="0.9"/>
  
  <!-- Clouds -->
  <ellipse cx="300" cy="200" rx="80" ry="40" fill="white" opacity="0.3"/>
  <ellipse cx="700" cy="150" rx="100" ry="50" fill="white" opacity="0.4"/>
  <ellipse cx="1200" cy="180" rx="90" ry="45" fill="white" opacity="0.3"/>
  <ellipse cx="1600" cy="120" rx="110" ry="55" fill="white" opacity="0.4"/>
  
  <!-- Dark overlay for text readability -->
  <rect x="0" y="0" width="1920" height="1080" fill="rgba(0,0,0,0.5)"/>
</svg>
